<svg width="430" height="430" viewBox="0 0 430 430" fill="none" xmlns="http://www.w3.org/2000/svg">
<path d="M331.511 169.75C327.361 112.09 280.461 65.5301 222.771 61.8101C206.814 60.7491 190.808 62.976 175.746 68.3528C160.684 73.7296 146.887 82.1417 135.209 93.0682C123.53 103.995 114.22 117.203 107.854 131.874C101.488 146.545 98.2029 162.367 98.2012 178.36C98.2522 190.931 100.277 203.417 104.201 215.36C127.591 287.81 215.001 368.43 215.001 368.43C215.001 368.43 307.891 275.7 326.641 212.75C330.862 198.831 332.512 184.26 331.511 169.75ZM215.001 233.33C204.123 233.33 193.49 230.104 184.445 224.061C175.4 218.017 168.351 209.428 164.188 199.378C160.025 189.328 158.936 178.269 161.058 167.6C163.18 156.931 168.418 147.131 176.11 139.439C183.802 131.747 193.602 126.509 204.271 124.387C214.94 122.265 225.999 123.354 236.049 127.517C246.099 131.68 254.689 138.729 260.732 147.774C266.775 156.818 270.001 167.452 270.001 178.33C270.001 185.553 268.579 192.705 265.815 199.378C263.051 206.051 258.999 212.114 253.892 217.221C248.785 222.328 242.722 226.379 236.049 229.143C229.376 231.907 222.224 233.33 215.001 233.33Z" fill="#4BB3FD"/>
<g style="mix-blend-mode:multiply" opacity="0.5">
<path d="M123.471 178.36C123.474 149.539 134.131 121.736 153.394 100.297C172.656 78.8581 199.164 65.2966 227.821 62.2201C226.231 62.0501 224.641 61.9101 223.041 61.8101C207.083 60.7491 191.078 62.976 176.016 68.3528C160.954 73.7296 147.156 82.1417 135.478 93.0682C123.8 103.995 114.489 117.203 108.124 131.874C101.758 146.545 98.4724 162.367 98.4707 178.36C98.5217 190.931 100.546 203.417 104.471 215.36C127.861 287.81 215.301 368.43 215.301 368.43C216.597 367.293 217.82 366.074 218.961 364.78C193.751 339.33 147.271 270.52 129.441 215.37C125.526 203.422 123.511 190.933 123.471 178.36Z" fill="#4BB3FD"/>
</g>
<path d="M103.73 215.37C99.8061 203.427 97.7815 190.941 97.7305 178.37C97.7305 162.374 101.016 146.549 107.383 131.875C113.75 117.2 123.063 103.99 134.745 93.0632C146.427 82.136 160.229 73.7246 175.295 68.3503C190.361 62.976 206.37 60.7534 222.33 61.8201C280 65.5301 326.92 112.09 331.07 169.75C332.081 184.258 330.441 198.829 326.23 212.75C307.48 275.75 214.59 368.43 214.59 368.43C214.59 368.43 127.15 287.81 103.73 215.37Z" stroke="#121331" stroke-width="7" stroke-linecap="round" stroke-linejoin="round"/>
<path d="M269.539 178.37C269.539 189.248 266.313 199.882 260.27 208.926C254.226 217.971 245.637 225.021 235.587 229.183C225.537 233.346 214.478 234.435 203.809 232.313C193.14 230.191 183.34 224.953 175.648 217.261C167.956 209.569 162.718 199.769 160.596 189.1C158.474 178.431 159.563 167.372 163.726 157.323C167.889 147.273 174.938 138.683 183.983 132.639C193.027 126.596 203.661 123.37 214.539 123.37C229.126 123.37 243.115 129.165 253.43 139.479C263.744 149.794 269.539 163.783 269.539 178.37V178.37Z" stroke="#121331" stroke-width="7" stroke-linecap="round" stroke-linejoin="round"/>
</svg>
